<?xml version="1.0" ?><!-- Uploaded to: SVG Repo, www.svgrepo.com, Generator: SVG Repo Mixer Tools -->
<svg fill="#000000" width="800px" height="800px" viewBox="0 0 35 35" data-name="Layer 2" id="Layer_2" xmlns="http://www.w3.org/2000/svg"><path d="M17.5,34.75A17.25,17.25,0,1,1,34.75,17.5,17.27,17.27,0,0,1,17.5,34.75Zm0-32A14.75,14.75,0,1,0,32.25,17.5,14.77,14.77,0,0,0,17.5,2.75Z"/><path d="M23.37,18.75H17.5a1.25,1.25,0,0,1-1.25-1.25V10.58a1.25,1.25,0,1,1,2.5,0v5.67h4.62a1.25,1.25,0,1,1,0,2.5Z"/></svg>